<?xml version="1.0" standalone="no"?>
<!DOCTYPE svg PUBLIC "-//W3C//DTD SVG 20010904//EN"
 "http://www.w3.org/TR/2001/REC-SVG-20010904/DTD/svg10.dtd">
<svg version="1.0" xmlns="http://www.w3.org/2000/svg"
 width="384.000000pt" height="384.000000pt" viewBox="0 0 384.000000 384.000000"
 preserveAspectRatio="xMidYMid meet">
<metadata>
Created by potrace 1.15, written by Peter Selinger 2001-2017
</metadata>
<g transform="translate(0.000000,384.000000) scale(0.100000,-0.100000)"
fill="#000000" stroke="none">
<path d="M1550 3833 c-14 -3 -33 -12 -42 -20 -17 -15 -18 -80 -18 -1083 l0
-1067 -25 -11 c-14 -7 -34 -12 -45 -12 -10 0 -25 -6 -32 -13 -16 -16 -19 -17
-553 -216 -369 -138 -385 -145 -385 -151 0 -3 93 -39 208 -80 114 -40 223 -80
242 -88 l35 -14 -150 -60 c-174 -69 -219 -102 -202 -147 9 -24 20 -30 83 -45
57 -14 77 -15 91 -6 13 8 14 10 2 7 -20 -6 -44 7 -36 20 4 6 28 18 54 28 26
10 81 34 122 52 41 19 109 48 150 64 42 17 94 39 116 49 72 33 306 130 316
130 5 0 9 -22 9 -49 l0 -49 -107 -42 c-60 -23 -120 -44 -136 -47 -15 -3 -30
-10 -33 -15 -4 -6 2 -7 16 -3 16 5 58 -8 146 -46 l125 -52 -3 -105 -3 -105
-70 -29 c-48 -20 -124 -37 -250 -56 -186 -29 -190 -29 -440 -8 l-60 5 3 -71 4
-71 -39 6 c-21 4 -54 9 -73 12 -29 5 -32 4 -17 -5 23 -15 49 -17 267 -29 167
-9 183 -8 370 20 107 16 219 38 248 49 l52 20 0 -109 c0 -75 4 -112 13 -119 6
-6 48 -25 92 -42 44 -17 94 -37 110 -45 17 -7 57 -23 90 -35 33 -12 78 -30
100 -40 22 -10 94 -39 159 -64 115 -44 178 -56 191 -37 3 5 22 15 43 22 20 6
39 15 42 19 3 3 226 117 495 253 773 388 847 427 910 482 32 28 61 52 65 55
24 16 40 89 40 185 0 97 -2 105 -32 158 -19 32 -46 62 -63 71 -84 42 -237 106
-254 106 -11 0 -22 4 -25 8 -3 5 -19 9 -37 10 -17 0 -63 8 -102 17 -244 55
-272 58 -482 64 -203 6 -325 -4 -376 -29 -9 -5 -38 -12 -65 -15 -27 -4 -55
-12 -61 -17 -18 -14 -19 1692 -1 1725 13 26 60 77 70 77 3 0 23 -33 45 -72
l38 -73 2 -704 c2 -481 6 -707 13 -716 6 -7 24 -19 41 -25 23 -10 27 -15 17
-22 -9 -7 -7 -8 7 -4 12 3 38 -3 60 -14 34 -17 59 -20 194 -20 149 0 184 5
258 37 17 7 45 16 62 19 16 4 32 12 35 20 3 8 11 14 18 14 7 0 32 17 54 38 23
20 57 49 77 64 23 18 51 60 85 126 52 102 67 148 96 287 9 44 22 104 28 133
18 82 -6 415 -38 530 -13 48 -24 96 -24 108 0 11 -13 45 -29 75 -15 30 -43 83
-62 119 -19 36 -37 67 -41 68 -5 2 -8 9 -8 15 -1 14 -42 62 -58 68 -6 2 -39
30 -74 61 -35 31 -81 69 -103 84 -142 97 -170 114 -186 114 -10 0 -20 4 -23 9
-3 4 -27 14 -53 21 -27 7 -52 16 -58 20 -16 10 -77 26 -310 80 -52 13 -178 39
-235 50 -25 5 -70 15 -100 23 -30 8 -82 20 -115 27 -33 7 -64 16 -70 20 -5 3
-26 7 -45 9 -19 1 -78 13 -130 27 -87 22 -168 28 -230 17z m1572 -2761 c9 -9
0 -17 -38 -33 -27 -11 -71 -31 -99 -44 -51 -23 -74 -34 -222 -99 -46 -20 -118
-51 -160 -70 -43 -19 -107 -46 -143 -60 -36 -15 -77 -33 -92 -41 -14 -8 -28
-15 -31 -15 -3 0 -5 29 -5 64 l1 64 253 106 c139 58 288 115 331 126 83 20
185 22 205 2z m-484 -615 c56 -23 102 -44 102 -47 0 -5 -405 -210 -415 -210
-3 0 -5 87 -5 194 l0 195 108 -45 c59 -25 153 -64 210 -87z"/>
</g>
</svg>
